<?xml version="1.0" encoding="utf-8"?>
<!-- Generator: Adobe Illustrator 23.0.1, SVG Export Plug-In . SVG Version: 6.00 Build 0)  -->
<svg version="1.1" id="Layer_1" xmlns="http://www.w3.org/2000/svg" xmlns:xlink="http://www.w3.org/1999/xlink" x="0px" y="0px"
	 viewBox="0 0 1009.5 693.1" style="enable-background:new 0 0 1009.5 693.1;" xml:space="preserve">
<style type="text/css">
	.st0{opacity:0.1;fill:#59A0FB;enable-background:new    ;}
	.st1{fill:#59A0FB;}
	.st2{fill:#2F2E41;}
	.st3{fill:#3F3D56;}
	.st4{fill:#FFFFFF;}
	.st5{fill:#E6E6E6;}
</style>
<title>empty</title>
<g>
	<path class="st0" d="M586.6,111.4c-64.7-2.2-126.4-23.1-185.2-46S284.2,17.2,221,5.1C180.4-2.7,133.9-3.8,101.2,18
		C69.7,39,59.5,75.1,54,108.7c-4.1,25.3-6.5,51.8,4.7,75.5c7.8,16.4,21.7,30.2,31.4,46c33.5,54.7,9.8,122.2-26.4,175.6
		c-17,25.1-36.8,49-49.9,75.6C0.6,508.1-5.4,538.7,6.1,566c11.4,27,38.5,47.2,67.9,61.5c59.7,29,130,37.2,198.6,41.9
		c151.8,10.4,304.5,5.9,456.7,1.4c56.3-1.7,112.9-3.3,168.3-12.1c30.8-4.8,62.6-12.5,84.9-31.1c28.4-23.5,35.4-63.4,16.4-92.9
		c-31.9-49.5-120-61.8-142.3-114.9c-12.3-29.2,0.3-61.8,18.2-88.9c38.2-58.2,102.3-109.2,105.7-175.7c2.3-45.7-28.5-91.4-76.1-113
		c-49.9-22.7-119.2-19.8-156,17.7C710.4,98.5,643.7,113.4,586.6,111.4z"/>
	<g>
		<path class="st1" d="M653.8,112.4c0,0-38-2.3-33.6,24.4c0,0-0.9,4.7,3.4,6.9c0,0,0.1-2,3.9-1.3c1.4,0.2,2.8,0.3,4.1,0.2
			c1.9-0.1,3.6-0.9,5.1-2.1l0,0c0,0,10.7-4.4,14.8-21.9c0,0,3.1-3.8,3-4.8l-6.4,2.8c0,0,2.2,4.6,0.5,8.5c0,0-0.2-8.3-1.4-8.1
			c-0.2,0-3.3,1.6-3.3,1.6s3.8,8.1,0.9,13.9c0,0,1.1-9.9-2.1-13.3l-4.5,2.6c0,0,4.4,8.3,1.4,15.1c0,0,0.8-10.4-2.4-14.5l-4.1,3.2
			c0,0,4.2,8.2,1.6,13.9c0,0-0.3-12.1-2.5-13.1c0,0-3.6,3.2-4.1,4.5c0,0,2.8,6,1.1,9.1c0,0-1.1-8.1-2-8.1c0,0-3.6,5.4-3.9,9
			c0.2-3.4,1.2-6.7,3.1-9.5c-2.1,0.4-4,1.4-5.5,2.8c0,0,0.5-3.8,6.3-4.1c0,0,3-4.1,3.7-4.3c0,0-5.8-0.5-9.2,1.1c0,0,3.1-3.6,10.3-2
			l4-3.3c0,0-7.6-1-10.8,0.1c0,0,3.7-3.2,11.9-0.9l4.4-2.6c0,0-6.5-1.4-10.3-0.9c0,0,4.1-2.2,11.6,0.2l3.2-1.4c0,0-4.7-0.9-6.1-1.1
			s-1.5-0.5-1.5-0.5c3-0.5,6.1-0.2,8.9,1C647.2,115.2,653.9,112.8,653.8,112.4z"/>
		<path class="st0" d="M769.2,245.7c0,0-38-2.3-33.6,24.4c0,0-0.9,4.7,3.4,6.9c0,0,0.1-2,3.9-1.3c1.4,0.2,2.8,0.3,4.1,0.2
			c1.8-0.1,3.6-0.9,5-2.1l0,0c0,0,10.7-4.4,14.9-21.9c0,0,3.1-3.8,3-4.8l-6.4,2.7c0,0,2.2,4.6,0.5,8.5c0,0-0.2-8.3-1.4-8.1
			c-0.2,0-3.3,1.6-3.3,1.6s3.8,8.1,0.9,13.9c0,0,1.1-9.9-2.1-13.4l-4.5,2.6c0,0,4.4,8.3,1.4,15.1c0,0,0.8-10.4-2.4-14.5l-4.1,3.2
			c0,0,4.1,8.2,1.6,13.9c0,0-0.3-12.1-2.5-13.1c0,0-3.6,3.2-4.1,4.5c0,0,2.8,6,1.1,9.1c0,0-1.1-8.1-2-8.1c0,0-3.6,5.4-3.9,9
			c0.2-3.4,1.2-6.7,3.1-9.5c-2.1,0.4-4,1.4-5.5,2.8c0,0,0.6-3.8,6.3-4.1c0,0,3-4.1,3.7-4.3c0,0-5.8-0.5-9.2,1.1c0,0,3.1-3.6,10.3-2
			l4-3.3c0,0-7.6-1-10.8,0.1c0,0,3.7-3.2,11.9-0.9l4.4-2.6c0,0-6.5-1.4-10.3-0.9c0,0,4.1-2.2,11.6,0.2l3.2-1.4c0,0-4.7-0.9-6.1-1.1
			s-1.5-0.5-1.5-0.5c3-0.5,6.1-0.2,8.9,1C762.6,248.6,769.4,246.1,769.2,245.7z"/>
		<path class="st0" d="M538.4,222.1c0,0,8.8-37.1-18.3-37.2c0,0-4.5-1.7-7.3,2.2c0,0,1.9,0.4,0.6,4.1c-0.5,1.3-0.8,2.6-0.9,4
			c-0.2,1.9,0.2,3.7,1.2,5.3l0,0c0,0,2.5,11.3,19,18.4c0,0,3.2,3.7,4.2,3.7l-1.6-6.8c0,0-4.9,1.4-8.4-1c0,0,8.2,1.2,8.2,0
			c0-0.2-1-3.6-1-3.6s-8.6,2.3-13.9-1.5c0,0,9.6,2.8,13.5,0.2l-1.8-4.9c0,0-9,2.9-15.2-1.2c0,0,10.2,2.5,14.7,0.1l-2.5-4.6
			c0,0-8.8,2.7-13.9-0.8c0,0,12,1.7,13.3-0.2c0,0-2.5-4.1-3.7-4.8c0,0-6.4,1.8-9.2-0.5c0,0,8.2,0.3,8.3-0.6c0,0-4.7-4.4-8.2-5.4
			c3.3,0.8,6.4,2.4,8.9,4.7c0-2.1-0.7-4.1-1.9-5.9c0,0,3.6,1.2,3,7c0,0,3.5,3.6,3.6,4.4c0,0,1.5-5.6,0.5-9.3c0,0,3,3.6,0.2,10.5
			l2.6,4.6c0,0,2.3-7.3,1.7-10.7c0,0,2.5,4.2-1.2,11.9l1.8,4.8c0,0,2.5-6.1,2.6-10c0,0,1.5,4.4-2.2,11.4l0.9,3.3
			c0,0,1.7-4.5,2.1-5.9s0.8-1.4,0.8-1.4c0,3-0.9,6-2.5,8.6C536.6,215.1,538,222.1,538.4,222.1z"/>
		<path class="st0" d="M455.2,234.7c0,0-30.5-22.8-41.4,1.9c0,0-3.3,3.5-0.9,7.6c0,0,1.1-1.6,4,1.1c1,0.9,2.1,1.8,3.3,2.4
			c1.6,0.9,3.5,1.3,5.4,1l0,0c0,0,11.4,2.2,24.4-10.1c0,0,4.7-1.5,5.1-2.4l-6.9-1.2c0,0-0.7,5.1-4.3,7.3c0,0,4.4-7.1,3.2-7.6
			c-0.2-0.1-3.7-0.5-3.7-0.5s-1.3,8.8-6.9,12.1c0,0,6.4-7.7,5.6-12.3l-5.2-0.3c0,0-0.9,9.4-7.1,13.4c0,0,6.4-8.3,6-13.4l-5.2,0.4
			c0,0-1,9.1-6.3,12.5c0,0,6.4-10.3,5.1-12.3c0,0-4.7,0.7-5.9,1.5c0,0-0.9,6.5-4.1,8.2c0,0,3.5-7.4,2.8-7.9c0,0-5.9,2.5-8.3,5.4
			c2-2.7,4.7-4.9,7.8-6.3c-1.9-0.8-4.1-1-6.1-0.6c0,0,2.5-2.9,7.6,0c0,0,4.7-1.8,5.5-1.5c0,0-4.5-3.6-8.3-4.2c0,0,4.5-1.3,9.7,4
			l5.2-0.5c0,0-5.8-5-9.1-5.8c0,0,4.8-0.6,10.4,5.8l5.1,0.2c0,0-4.6-4.7-8.1-6.4c0,0,4.6,0.4,9.6,6.5l3.4,0.5c0,0-3.5-3.4-4.5-4.3
			s-0.9-1.2-0.9-1.2c2.8,1.2,5.2,3.2,6.9,5.7C448.1,233.5,455,235.1,455.2,234.7z"/>
		<path class="st0" d="M556.8,22.6c0,0-30.5-22.8-41.4,1.9c0,0-3.3,3.4-0.9,7.6c0,0,1.1-1.6,4,1.1c1,0.9,2.1,1.8,3.3,2.4
			c1.6,0.9,3.5,1.3,5.4,1l0,0c0,0,11.4,2.2,24.4-10.1c0,0,4.7-1.5,5.1-2.4l-6.9-1.2c0,0-0.7,5.1-4.3,7.3c0,0,4.4-7.1,3.3-7.6
			c-0.2-0.1-3.7-0.5-3.7-0.5s-1.3,8.8-6.9,12.2c0,0,6.4-7.7,5.6-12.3l-5.2-0.3c0,0-0.9,9.4-7.1,13.4c0,0,6.4-8.3,6-13.4l-5.2,0.4
			c0,0-1.1,9.1-6.3,12.5c0,0,6.4-10.3,5.1-12.3c0,0-4.7,0.7-5.9,1.4c0,0-0.9,6.5-4.1,8.2c0,0,3.5-7.3,2.8-7.9c0,0-5.9,2.5-8.3,5.4
			c2-2.7,4.7-4.9,7.8-6.3c-1.9-0.8-4.1-1-6.1-0.6c0,0,2.5-2.9,7.6,0.1c0,0,4.7-1.8,5.5-1.6c0,0-4.5-3.6-8.3-4.2c0,0,4.5-1.3,9.7,4
			l5.2-0.5c0,0-5.8-5-9.1-5.8c0,0,4.8-0.6,10.4,5.8l5.1,0.2c0,0-4.6-4.7-8.1-6.4c0,0,4.6,0.4,9.6,6.5l3.4,0.6c0,0-3.5-3.3-4.5-4.2
			s-0.9-1.2-0.9-1.2c2.8,1.2,5.2,3.2,6.9,5.7C549.7,21.4,556.6,23,556.8,22.6z"/>
		<path class="st0" d="M673.4,51.5c0,0-12.2-36.1-35.2-21.9c0,0-4.7,1-5.1,5.7c0,0,1.8-0.7,2.7,3.1c0.3,1.4,0.8,2.7,1.4,3.9
			c0.8,1.7,2.2,3,3.8,3.9l0,0c0,0,8.1,8.2,25.9,5.5c0,0,4.7,1.4,5.5,0.9l-5-4.9c0,0-3.5,3.8-7.7,3.6c0,0,7.6-3.3,7-4.4
			c-0.1-0.2-2.7-2.5-2.7-2.5s-6.1,6.5-12.6,6.1c0,0,9.6-2.7,11.6-7l-4.1-3.2c0,0-6.1,7.2-13.5,7c0,0,10-3.2,12.5-7.7l-4.5-2.6
			c0,0-6,6.9-12.2,6.7c0,0,11.1-4.9,11.2-7.2c0,0-4.3-2.1-5.7-2.2c0,0-4.5,4.9-8,4.4c0,0,7.1-4.1,6.8-4.9c0,0-6.3-1.3-9.8-0.2
			c3.2-1.1,6.7-1.4,10-0.8c-1.1-1.8-2.8-3.2-4.7-4c0,0,3.7-0.9,6.2,4.3c0,0,4.9,1.2,5.4,1.8c0,0-1.7-5.5-4.5-8.2
			c0,0,4.5,1.5,5.7,8.8l4.6,2.5c0,0-1.9-7.4-4.2-10c0,0,4.3,2.2,5.3,10.7l4.1,3.1c0,0-1.1-6.5-3.1-9.9c0,0,3.6,2.9,4.2,10.8l2.5,2.4
			c0,0-0.9-4.7-1.3-6.1s-0.1-1.4-0.1-1.4c1.6,2.6,2.4,5.6,2.4,8.6C668.2,46.6,673,51.8,673.4,51.5z"/>
		<path class="st0" d="M593.8,53.3c0,0-37.9-4.2-34.8,22.7c0,0-1.1,4.7,3,7c0,0,0.2-2,4-1.1c1.4,0.3,2.7,0.4,4.1,0.4
			c1.9,0,3.7-0.7,5.2-1.8l0,0c0,0,10.9-3.9,16-21.1c0,0,3.3-3.7,3.2-4.6l-6.5,2.4c0,0,2,4.7,0,8.5c0,0,0.2-8.3-1-8.2
			c-0.2,0-3.4,1.4-3.4,1.4s3.4,8.3,0.2,14c0,0,1.6-9.9-1.4-13.4l-4.7,2.4c0,0,4,8.6,0.7,15.2c0,0,1.3-10.4-1.6-14.6l-4.2,3
			c0,0,3.7,8.4,0.9,13.9c0,0,0.3-12.1-1.8-13.2c0,0-3.7,3-4.3,4.2c0,0,2.5,6.1,0.6,9.2c0,0-0.7-8.1-1.5-8.2c0,0-3.8,5.2-4.4,8.8
			c0.3-3.4,1.6-6.6,3.6-9.4c-2.1,0.3-4,1.2-5.6,2.5c0,0,0.7-3.8,6.5-3.8c0,0,3.2-3.9,4-4.1c0,0-5.7-0.8-9.3,0.6
			c0,0,3.2-3.4,10.4-1.4l4.2-3.1c0,0-7.6-1.5-10.8-0.5c0,0,3.9-3,11.9-0.2l4.5-2.4c0,0-6.4-1.7-10.3-1.4c0,0,4.2-2,11.6,0.8l3.2-1.2
			c0,0-4.7-1.2-6.1-1.4s-1.4-0.6-1.4-0.6c3-0.3,6.1,0.2,8.8,1.4C587.1,55.9,593.8,53.7,593.8,53.3z"/>
		<path class="st0" d="M925.4,347.5c0,0-37.9-4.2-34.8,22.6c0,0-1.1,4.7,3,7c0,0,0.2-2,4-1.1c1.4,0.3,2.7,0.4,4.1,0.4
			c1.9,0,3.7-0.7,5.2-1.8l0,0c0,0,10.9-3.9,16-21.1c0,0,3.3-3.7,3.2-4.6l-6.5,2.4c0,0,2,4.7,0,8.5c0,0,0.2-8.3-1-8.2
			c-0.2,0-3.4,1.4-3.4,1.4s3.4,8.2,0.2,14c0,0,1.6-9.9-1.4-13.4l-4.7,2.4c0,0,4,8.5,0.7,15.2c0,0,1.3-10.4-1.6-14.6l-4.2,3
			c0,0,3.7,8.4,0.9,13.9c0,0,0.3-12.1-1.8-13.2c0,0-3.7,3-4.3,4.2c0,0,2.5,6.1,0.6,9.1c0,0-0.7-8.1-1.5-8.2c0,0-3.8,5.2-4.4,8.8
			c0.3-3.4,1.6-6.6,3.6-9.4c-2.1,0.3-4,1.2-5.6,2.5c0,0,0.7-3.8,6.5-3.8c0,0,3.2-3.9,4-4.1c0,0-5.7-0.8-9.3,0.6
			c0,0,3.2-3.4,10.4-1.4l4.2-3.1c0,0-7.5-1.4-10.8-0.4c0,0,3.9-3,11.9-0.3l4.5-2.4c0,0-6.4-1.7-10.3-1.4c0,0,4.2-2,11.6,0.8l3.2-1.3
			c0,0-4.7-1.2-6.1-1.4s-1.4-0.6-1.4-0.6c3-0.4,6.1,0.1,8.8,1.4C918.7,350.1,925.5,347.9,925.4,347.5z"/>
		<path class="st0" d="M983.3,382.8c0,0-37.9-4.2-34.8,22.6c0,0-1.1,4.7,3,7c0,0,0.2-2,4-1.1c1.3,0.3,2.7,0.4,4.1,0.4
			c1.9,0,3.7-0.7,5.1-1.8l0,0c0,0,10.9-3.9,15.9-21.1c0,0,3.3-3.6,3.2-4.6l-6.6,2.4c0,0,2,4.7,0,8.5c0,0,0.2-8.3-1-8.2
			c-0.2,0-3.4,1.4-3.4,1.4s3.4,8.2,0.2,14c0,0,1.6-9.9-1.4-13.4l-4.7,2.4c0,0,4,8.5,0.7,15.2c0,0,1.3-10.4-1.6-14.6l-4.2,3
			c0,0,3.7,8.4,0.9,13.9c0,0,0.3-12.1-1.8-13.2c0,0-3.7,3-4.3,4.2c0,0,2.5,6.1,0.6,9.1c0,0-0.7-8.1-1.6-8.2c0,0-3.8,5.2-4.4,8.8
			c0.3-3.4,1.6-6.6,3.6-9.4c-2.1,0.3-4,1.2-5.6,2.5c0,0,0.8-3.8,6.6-3.8c0,0,3.2-3.9,4-4.1c0,0-5.7-0.8-9.3,0.6
			c0,0,3.2-3.4,10.4-1.4l4.2-3.1c0,0-7.5-1.4-10.8-0.4c0,0,3.9-3,11.9-0.2l4.5-2.4c0,0-6.4-1.7-10.3-1.4c0,0,4.2-2,11.6,0.8l3.2-1.2
			c0,0-4.7-1.2-6.1-1.4s-1.4-0.6-1.4-0.6c3-0.3,6.1,0.2,8.8,1.4C976.6,385.5,983.4,383.3,983.3,382.8z"/>
		<path class="st0" d="M854.7,84.8c0,0-30.5-22.8-41.4,1.9c0,0-3.3,3.4-0.9,7.6c0,0,1.1-1.6,4,1.1c1,0.9,2.1,1.8,3.3,2.4
			c1.6,0.9,3.5,1.3,5.4,1l0,0c0,0,11.4,2.2,24.5-10.1c0,0,4.7-1.5,5.1-2.4l-6.9-1.2c0,0-0.7,5.1-4.3,7.3c0,0,4.4-7.1,3.2-7.6
			c-0.2-0.1-3.7-0.5-3.7-0.5s-1.3,8.8-6.9,12.1c0,0,6.4-7.7,5.6-12.3l-5.2-0.3c0,0-0.9,9.4-7.1,13.4c0,0,6.4-8.3,6-13.4l-5.2,0.4
			c0,0-1,9.1-6.3,12.4c0,0,6.4-10.3,5.1-12.3c0,0-4.7,0.7-5.9,1.4c0,0-0.9,6.5-4.1,8.2c0,0,3.5-7.4,2.8-7.9c0,0-5.9,2.5-8.3,5.4
			c2-2.7,4.7-4.9,7.8-6.3c-1.9-0.8-4.1-1-6.1-0.6c0,0,2.5-2.9,7.6,0.1c0,0,4.7-1.8,5.5-1.6c0,0-4.5-3.6-8.3-4.2c0,0,4.5-1.3,9.7,4
			l5.2-0.5c0,0-5.8-5-9.1-5.8c0,0,4.8-0.6,10.4,5.8l5.1,0.2c0,0-4.6-4.7-8.1-6.4c0,0,4.6,0.4,9.6,6.5l3.4,0.6c0,0-3.5-3.4-4.5-4.3
			s-0.9-1.2-0.9-1.2c2.8,1.2,5.2,3.2,6.9,5.7C847.7,83.7,854.6,85.2,854.7,84.8z"/>
		<path class="st0" d="M878.3,249.7c0,0-10.5-36.6-34.2-23.5c0,0-4.7,0.7-5.3,5.5c0,0,1.9-0.6,2.5,3.2c0.2,1.4,0.6,2.7,1.2,4
			c0.7,1.7,2,3.2,3.7,4.1l0,0c0,0,7.7,8.6,25.6,6.7c0,0,4.6,1.6,5.5,1.2l-4.7-5.1c0,0-3.6,3.6-7.8,3.3c0,0,7.8-3,7.2-4.1
			c-0.1-0.2-2.6-2.6-2.6-2.6s-6.3,6.3-12.8,5.5c0,0,9.7-2.3,11.9-6.4l-4-3.4c0,0-6.4,6.9-13.8,6.4c0,0,10.1-2.8,12.9-7.1l-4.4-2.8
			c0,0-6.3,6.6-12.5,6.1c0,0,11.3-4.4,11.5-6.7c0,0-4.2-2.3-5.6-2.4c0,0-4.7,4.7-8.2,4.1c0,0,7.3-3.7,7-4.6c0,0-6.2-1.6-9.8-0.7
			c3.3-1,6.7-1.1,10-0.3c-1.1-1.8-2.6-3.3-4.5-4.2c0,0,3.8-0.8,6,4.6c0,0,4.8,1.4,5.3,2.1c0,0-1.5-5.6-4.1-8.4c0,0,4.4,1.7,5.3,9.1
			l4.5,2.7c0,0-1.6-7.5-3.7-10.1c0,0,4.2,2.4,4.8,10.9l4,3.3c0,0-0.8-6.6-2.6-10c0,0,3.4,3.1,3.7,11l2.4,2.5c0,0-0.7-4.8-1-6.1
			s0-1.5,0-1.5c1.5,2.7,2.2,5.7,2,8.7C873.4,244.5,877.9,249.9,878.3,249.7z"/>
		<path class="st0" d="M643.9,332.2c0,0-20.4-32.2-39.4-12.9c0,0-4.3,2-3.6,6.8c0,0,1.7-1.1,3.3,2.4c0.6,1.2,1.4,2.4,2.3,3.5
			c1.2,1.4,2.8,2.5,4.7,2.9l0,0c0,0,9.8,6.1,26.5-0.8c0,0,4.9,0.3,5.6-0.4l-6-3.6c0,0-2.5,4.5-6.6,5.4c0,0,6.6-5,5.7-5.9
			c-0.2-0.2-3.2-1.8-3.2-1.8s-4.3,7.8-10.8,8.9c0,0,8.7-5,9.6-9.5l-4.8-2.1c0,0-4.2,8.5-11.4,10c0,0,8.9-5.5,10.3-10.4l-5-1.4
			c0,0-4.2,8.2-10.3,9.4c0,0,9.6-7.4,9.1-9.7c0,0-4.7-1-6-0.7c0,0-3.2,5.8-6.8,6.2c0,0,5.9-5.6,5.4-6.4c0,0-6.4,0.2-9.6,2.1
			c2.9-1.8,6.1-2.9,9.5-3.1c-1.5-1.4-3.4-2.4-5.5-2.8c0,0,3.4-1.8,7,2.7c0,0,5,0,5.7,0.5c0,0-3-5-6.3-6.9c0,0,4.7,0.4,7.6,7.2l5,1.3
			c0,0-3.6-6.8-6.4-8.7c0,0,4.7,1.1,7.7,9.1l4.7,2c0,0-2.7-6-5.3-8.9c0,0,4.2,2,6.7,9.5l3,1.7c0,0-2-4.4-2.7-5.6s-0.4-1.5-0.4-1.5
			c2.2,2.1,3.7,4.8,4.4,7.8C637.6,328.6,643.6,332.5,643.9,332.2z"/>
		<path class="st1" d="M778.1,167.8c0,0-19.4-32.8-39-14.1c0,0-4.4,1.9-3.8,6.6c0,0,1.7-1.1,3.3,2.5c0.6,1.3,1.3,2.5,2.2,3.5
			c1.1,1.5,2.8,2.5,4.6,3l0,0c0,0,9.7,6.4,26.5,0c0,0,4.9,0.4,5.6-0.2l-5.9-3.8c0,0-2.6,4.4-6.8,5.1c0,0,6.8-4.8,5.9-5.7
			c-0.2-0.2-3.2-1.9-3.2-1.9s-4.6,7.6-11,8.6c0,0,8.8-4.7,9.9-9.2l-4.7-2.2c0,0-4.4,8.3-11.7,9.7c0,0,9.1-5.2,10.7-10.1l-4.9-1.6
			c0,0-4.5,8-10.6,9.1c0,0,9.9-7.1,9.4-9.4c0,0-4.6-1.2-6-0.9c0,0-3.3,5.7-6.9,6c0,0,6.1-5.4,5.6-6.2c0,0-6.4,0.1-9.7,1.8
			c2.9-1.8,6.2-2.7,9.6-2.8c-1.5-1.5-3.4-2.5-5.4-2.9c0,0,3.5-1.7,7,2.9c0,0,5,0.2,5.7,0.7c0,0-2.8-5-6.1-7.1c0,0,4.7,0.5,7.4,7.4
			l5,1.5c0,0-3.4-6.9-6.2-8.9c0,0,4.7,1.3,7.4,9.4l4.7,2.2c0,0-2.5-6.1-5-9c0,0,4.1,2.1,6.4,9.7l2.9,1.8c0,0-1.9-4.4-2.5-5.7
			s-0.4-1.5-0.4-1.5c2.1,2.2,3.5,4.9,4.2,7.9C772.1,164,777.9,168.1,778.1,167.8z"/>
		<path class="st1" d="M655.2,236.7c0,0,1-38.1-25.5-32.7c0,0-4.7-0.7-6.7,3.6c0,0,2,0,1.4,3.9c-0.2,1.4-0.2,2.8-0.1,4.1
			c0.2,1.9,1,3.6,2.2,5l0,0c0,0,4.8,10.5,22.4,14.1c0,0,3.9,3,4.9,2.8l-3-6.3c0,0-4.5,2.3-8.5,0.8c0,0,8.3-0.5,8.1-1.7
			c0-0.2-1.7-3.3-1.7-3.3s-7.9,4-13.9,1.4c0,0,10,0.8,13.3-2.5l-2.8-4.4c0,0-8.2,4.7-15.1,1.9c0,0,10.5,0.4,14.4-2.9l-3.3-4
			c0,0-8.1,4.4-13.8,2.1c0,0,12.1-0.7,13-2.9c0,0-3.3-3.5-4.6-4c0,0-5.9,3-9.1,1.4c0,0,8-1.3,8-2.2c0,0-5.5-3.4-9.2-3.6
			c3.4,0.1,6.7,1,9.7,2.8c-0.5-2-1.5-3.9-3-5.4c0,0,3.8,0.4,4.3,6.2c0,0,4.2,2.8,4.4,3.6c0,0,0.3-5.8-1.4-9.2c0,0,3.7,3,2.3,10.2
			l3.4,3.9c0,0,0.8-7.6-0.5-10.8c0,0,3.3,3.6,1.3,11.9l2.8,4.3c0,0,1.2-6.5,0.5-10.3c0,0,2.3,4,0.2,11.6l1.5,3.1
			c0,0,0.8-4.8,0.9-6.2s0.5-1.5,0.5-1.5c0.6,3,0.4,6.1-0.7,8.9C652.1,230.3,654.8,236.9,655.2,236.7z"/>
	</g>
</g>
<g>
	<path class="st2" d="M641.1,588.6H189.7c-8.4,0-15.1-6.8-15.1-15.1l0,0l0,0c163.6-19,324.1-19,481.6,0l0,0
		C656.2,581.9,649.4,588.6,641.1,588.6L641.1,588.6z"/>
	<path class="st3" d="M656.2,574.4l-481.6-0.9l55.8-93.9l0.3-0.4v-207c0-10.6,8.6-19.1,19.1-19.1c0,0,0,0,0,0h328.5
		c10.6,0,19.1,8.6,19.1,19.1c0,0,0,0,0,0v208.4L656.2,574.4z"/>
	<path class="st4" d="M249.4,266.4c-3.4,0-6.2,2.8-6.2,6.2v188.7c0,3.4,2.8,6.2,6.2,6.2h332c3.4,0,6.2-2.8,6.2-6.2V272.6
		c0-3.4-2.8-6.2-6.2-6.2L249.4,266.4z"/>
	<path class="st2" d="M250.8,492.5c-1,0-2,0.6-2.4,1.6l-17.2,37.4c-0.6,1.3,0,2.9,1.3,3.5c0.4,0.2,0.7,0.2,1.1,0.2h361.7
		c1.5,0,2.7-1.2,2.7-2.7c0-0.4-0.1-0.8-0.3-1.2L578.9,494c-0.4-0.9-1.4-1.5-2.4-1.5L250.8,492.5z"/>
	<circle class="st4" cx="414.1" cy="259.3" r="4"/>
	<path class="st2" d="M378.5,542.4c-1.2,0-2.3,0.8-2.6,2l-4.3,16c-0.4,1.4,0.5,2.9,1.9,3.3c0.2,0.1,0.5,0.1,0.7,0.1h82
		c1.5,0,2.7-1.2,2.7-2.7c0-0.3,0-0.6-0.1-0.9l-5.5-16c-0.4-1.1-1.4-1.8-2.5-1.8L378.5,542.4z"/>
	<polygon class="st2" points="597.4,476 597.4,479.6 230.4,479.6 230.7,479.2 230.7,476 	"/>
	<circle class="st1" cx="587.2" cy="266.8" r="62.3"/>
	<path class="st4" d="M613,294h-51.6c-2,0-3.6-1.6-3.6-3.6v-31.2c0-2,1.6-3.6,3.6-3.6H613c2,0,3.6,1.6,3.6,3.6v31.2
		C616.6,292.4,615,294,613,294z M561.4,259.3v31.2H613l0-31.2L561.4,259.3z"/>
	<path class="st4" d="M603.2,259.3h-32V245c0-10.3,6.7-17.8,16-17.8s16,7.5,16,17.8V259.3z M574.7,255.7h24.9V245
		c0-8.4-5.1-14.2-12.5-14.2c-7.3,0-12.5,5.9-12.5,14.2L574.7,255.7z"/>
	<circle class="st4" cx="587.2" cy="274" r="3.6"/>
	<path class="st5" d="M543.7,403.6H287.1c-2.6,0-4.7-2.1-4.8-4.8v-63.7c0-2.6,2.1-4.7,4.8-4.8h256.6c2.6,0,4.7,2.1,4.8,4.8v63.7
		C548.5,401.4,546.3,403.6,543.7,403.6z M287.1,332.3c-1.6,0-2.8,1.3-2.9,2.9v63.7c0,1.6,1.3,2.8,2.9,2.9h256.6
		c1.6,0,2.8-1.3,2.9-2.9v-63.7c0-1.6-1.3-2.8-2.9-2.9L287.1,332.3z"/>
	<circle class="st5" cx="327" cy="364.5" r="19.4"/>
	<path class="st5" d="M371.7,351.6c-1.8,0-3.2,1.4-3.2,3.2c0,1.8,1.4,3.2,3.2,3.2c0,0,0,0,0,0h152.1c1.8,0,3.2-1.4,3.2-3.2
		c0-1.8-1.4-3.2-3.2-3.2H371.7z"/>
	<path class="st5" d="M371.7,371c-1.8,0-3.2,1.4-3.2,3.2c0,1.8,1.4,3.2,3.2,3.2h65.4c1.8,0,3.2-1.4,3.2-3.2c0-1.8-1.4-3.2-3.2-3.2
		H371.7z"/>
</g>
</svg>
